# xmcd CD database file
#
# Track frame offsets:
#	150
#	19730
#	36083
#	55625
#
# Disc length: 957 seconds
#
# Revision: 0
# Processed by: cddbd v1.5.1PL0 Copyright (c) Steve Scherf et al.
# Submitted via: CDex 1.51
#
DISCID=2603bb04
DTITLE=Joelle - True Answer
DYEAR=2001
DGENRE=JPop
TTITLE0=True Answer
TTITLE1=STAY WITH ME
TTITLE2=True Answer (Instrumental)
TTITLE3=STAY WITH ME (Instrumental)
EXTD=YEAR: 2001
EXTT0=
EXTT1=
EXTT2=
EXTT3=
PLAYORDER=
